# xmcd
#
# Track frame offsets: 
#        150
#        19450
#        55190
#        83725
#        130067
#        165980
#        210122
#        233497
#
# Disc length: 3384 seconds
#
# Revision: 1
# Processed by: cddbd v1.5.1PL0 Copyright (c) Steve Scherf et al.
# Submitted via: ExactAudioCopy v0.95a5
#
DISCID=540d3608
DTITLE=Madonna - Secret Remixes
DYEAR=1995
DGENRE=Pop
TTITLE0=Secret-Junior's Luscious Single Mix-
TTITLE1=Secret-Junior's Extended Luscious Club Mix-
TTITLE2=Secret-Junior's Luscious Dub-
TTITLE3=Secret-Junior's Sound Factory Mix-
TTITLE4=Secret-Junior's Sound Factory Dub-
TTITLE5=Secret-Some Bizarre Mix-
TTITLE6=Secret-Allstar Mix-
TTITLE7=Secret-Edit-
EXTD=
EXTT0=
EXTT1=
EXTT2=
EXTT3=
EXTT4=
EXTT5=
EXTT6=
EXTT7=
PLAYORDER=
